<svg width="32" height="32" viewBox="0 0 32 32" fill="none" xmlns="http://www.w3.org/2000/svg">
<path d="M13.0396 22.0041C13.0396 21.8615 13.0122 21.7902 12.9574 21.7902L12.5788 21.9712C12.5788 21.8944 12.535 21.8396 12.4472 21.8067L12.3155 21.7902C12.2278 21.7902 12.118 21.8286 11.9864 21.9054C11.9644 21.8505 11.937 21.7957 11.9041 21.7408C11.8712 21.686 11.8438 21.6366 11.8218 21.5927C11.6792 21.3184 11.5366 21.0167 11.3939 20.6876C11.2623 20.3475 11.1361 20.0238 11.0154 19.7166C10.9057 19.4094 10.8179 19.168 10.7521 18.9925C10.7082 18.8499 10.6588 18.6359 10.604 18.3507C10.5491 18.0654 10.4943 17.7033 10.4394 17.2645C10.5601 17.3413 10.6534 17.3797 10.7192 17.3797C10.796 17.3797 10.8673 17.2645 10.9331 17.0341C10.966 17.078 11.0264 17.0999 11.1142 17.0999C11.18 17.0999 11.2294 17.078 11.2623 17.0341L11.5256 16.6391L11.8218 16.7379H11.8383C11.8602 16.7379 11.8822 16.7269 11.9041 16.7049C11.926 16.683 11.959 16.6611 12.0028 16.6391C12.0906 16.5843 12.1564 16.5568 12.2003 16.5568L12.2497 16.5733C12.524 16.7049 12.6995 16.9463 12.7763 17.2974C12.9738 18.1312 13.1713 18.5481 13.3688 18.5481C13.5663 18.5481 13.7967 18.3397 14.06 17.9228C14.1916 17.7143 14.3233 17.4729 14.455 17.1987C14.5976 16.9244 14.7402 16.6172 14.8828 16.2771C14.9048 16.4087 14.9267 16.4745 14.9487 16.4745C15.0035 16.4745 15.0968 16.3374 15.2284 16.0631C15.3711 15.7888 15.596 15.4103 15.9032 14.9276C16.0787 14.6313 16.2982 14.2967 16.5615 13.9237C16.8358 13.5507 17.1265 13.1667 17.4337 12.7717C17.7409 12.3767 18.0371 12.0037 18.3224 11.6526C18.6186 11.3015 18.8819 10.9998 19.1123 10.7475C19.3427 10.4951 19.5128 10.3305 19.6225 10.2537C20.0394 9.96849 20.3686 9.6942 20.6099 9.43089C20.599 9.50768 20.5825 9.579 20.5606 9.64483C20.5496 9.69969 20.5441 9.73809 20.5441 9.76003C20.5441 9.80391 20.566 9.82586 20.6099 9.82586L21.0707 9.59546V9.66129C21.0707 9.74906 21.0927 9.79294 21.1366 9.79294C21.1695 9.79294 21.2353 9.74357 21.334 9.64483C21.4328 9.54609 21.4876 9.47477 21.4986 9.43089L21.4657 9.66129L22.0252 9.33214L21.8936 9.62837C22.0691 9.50769 22.1953 9.44734 22.2721 9.44734C22.316 9.44734 22.3489 9.47477 22.3708 9.52963C22.3928 9.57351 22.4038 9.6174 22.4038 9.66129C22.4038 9.72711 22.3763 9.80391 22.3215 9.89169C22.2666 9.97946 22.1953 10.0837 22.1075 10.2044C22.0417 10.2921 21.932 10.4238 21.7784 10.5993C21.6358 10.7639 21.4163 11.0108 21.1201 11.3399C20.8239 11.6581 20.4289 12.1024 19.9352 12.6729C19.8035 12.8156 19.6006 13.0679 19.3263 13.43C19.052 13.7811 18.7393 14.1925 18.3882 14.6643C18.0481 15.1251 17.708 15.5913 17.3679 16.0631C17.0278 16.5349 16.726 16.9628 16.4627 17.3468C16.1994 17.7198 16.0129 17.9996 15.9032 18.1861L14.8828 19.9141C14.6634 20.2871 14.4824 20.5943 14.3398 20.8357C14.1971 21.0661 14.0874 21.2252 14.0106 21.3129C13.846 21.5104 13.665 21.686 13.4675 21.8396L13.3194 21.7573L13.1878 21.8396L13.0396 22.0041Z" fill="#0224E9"/>
<rect x="0.64" y="0.64" width="30.72" height="30.72" rx="5.76" stroke="#0224E9" stroke-width="1.28"/>
</svg>
