<svg width="12" height="14" viewBox="0 0 12 14" fill="none" xmlns="http://www.w3.org/2000/svg">
<path d="M2.35337 13.2546C2.2656 13.2546 2.21074 13.2382 2.1888 13.2053L1.89257 12.8103C1.93646 12.6786 1.9584 12.5799 1.9584 12.5141C1.9584 12.4702 1.94743 12.4482 1.92549 12.4482C1.85966 12.4482 1.79383 12.4757 1.728 12.5305C1.6512 12.5854 1.5744 12.6128 1.4976 12.6128C1.45371 12.6018 1.43177 12.5744 1.43177 12.5305L1.46469 12.3166C1.46469 12.2946 1.45371 12.2837 1.43177 12.2837L1.33303 12.3166L1.20137 12.3495C1.17943 12.3275 1.16846 12.3056 1.16846 12.2837L1.20137 12.0203C1.20137 11.9545 1.18491 11.8832 1.152 11.8064C1.11909 11.7296 1.09166 11.6912 1.06971 11.6912L0.839314 11.5925C0.872229 11.5266 0.905143 11.4553 0.938057 11.3785C0.970972 11.3127 0.992914 11.2414 1.00389 11.1646C1.00389 11.1097 0.992914 11.0329 0.970972 10.9342C0.96 10.8354 0.927086 10.7147 0.872229 10.5721C1.0368 10.221 1.36046 9.74926 1.8432 9.1568C2.32594 8.56434 2.97874 7.82926 3.8016 6.95154C3.24206 5.79954 2.68251 4.48297 2.12297 3.00183L2.04069 2.90309C2.00777 2.8592 1.96937 2.77691 1.92549 2.65623C1.8816 2.52457 1.8432 2.3984 1.81029 2.27771C1.77737 2.14606 1.76091 2.06377 1.76091 2.03086C1.76091 1.99794 1.77189 1.98148 1.79383 1.98148C1.85966 1.98148 1.93646 1.94857 2.02423 1.88274C2.12297 1.80594 2.17783 1.73463 2.1888 1.6688C2.21074 1.61394 2.26011 1.54263 2.33691 1.45486C2.42469 1.36708 2.48503 1.3232 2.51794 1.3232C2.52891 1.3232 2.57829 1.35063 2.66606 1.40549C2.69897 1.41646 2.7264 1.43291 2.74834 1.45486C2.78126 1.46583 2.81417 1.47131 2.84709 1.47131L2.91291 1.45486C3.01166 1.41097 3.07749 1.26834 3.1104 1.02697C3.17623 1.11474 3.23657 1.15863 3.29143 1.15863L3.3408 1.12571C3.38469 1.05988 3.41211 1.00503 3.42309 0.961142C3.456 0.906285 3.48891 0.878856 3.52183 0.878856L3.5712 0.895313C3.63703 0.961142 3.75771 1.10926 3.93326 1.33966C4.1088 1.57006 4.29531 1.82788 4.4928 2.11314C4.70126 2.3984 4.86583 2.65074 4.98651 2.87017C5.08526 3.04571 5.2224 3.27063 5.39794 3.54491C5.57349 3.80823 5.78743 4.12091 6.03977 4.48297C6.73097 3.71497 7.28503 3.11154 7.70194 2.67268C8.11886 2.22286 8.39863 1.9376 8.54126 1.81691C8.68389 1.69623 8.81554 1.57554 8.93623 1.45486C9.05692 1.33417 9.17212 1.21897 9.28183 1.10926C9.49029 0.878856 9.66034 0.708799 9.792 0.599085L10.3845 0.138285L10.4338 0.154742C10.5984 0.264456 10.6917 0.363199 10.7136 0.45097L10.7465 0.566171L10.9769 0.697827L10.944 0.878856C10.944 0.922742 10.9714 1.01051 11.0263 1.14217C11.0811 1.26286 11.1305 1.33417 11.1744 1.35611C11.2293 1.35611 11.2786 1.33966 11.3225 1.30674C11.3774 1.27383 11.4542 1.25737 11.5529 1.25737H11.6352L11.5694 1.52068L11.7339 1.5536L11.7669 1.83337C11.7669 1.976 11.701 2.0912 11.5694 2.17897L11.701 2.37646L9.89074 4.13737C9.6384 4.38971 9.31474 4.72983 8.91977 5.15771C8.53577 5.57463 8.09143 6.0848 7.58674 6.68823C8.23406 7.55497 8.74423 8.2352 9.11726 8.72891C9.50126 9.21166 9.74812 9.51337 9.85783 9.63406C10.0773 9.87543 10.187 10.0455 10.187 10.1442C10.187 10.232 10.1541 10.3527 10.0882 10.5063C10.0334 10.6599 9.96754 10.797 9.89074 10.9177C9.81394 11.0384 9.74812 11.0987 9.69326 11.0987L9.19954 11.1317L9.3312 11.5925L9.26537 11.6418C9.19954 11.6747 9.15017 11.6912 9.11726 11.6912H9.03497C8.93623 11.6912 8.8704 11.7461 8.83749 11.8558C8.7936 11.9765 8.71132 12.0368 8.59063 12.0368C8.5248 12.0368 8.46446 12.0094 8.4096 11.9545C8.35474 11.8997 8.27246 11.8722 8.16274 11.8722C8.10789 11.8722 8.06949 11.8887 8.04754 11.9216L7.99817 12.0368C7.9872 12.1136 7.97074 12.1794 7.9488 12.2343C7.93783 12.2891 7.92686 12.3275 7.91589 12.3495C7.89394 12.4043 7.85006 12.4318 7.78423 12.4318H7.73486C7.69097 12.4318 7.63611 12.4208 7.57029 12.3989C7.51543 12.3769 7.44411 12.3495 7.35634 12.3166C7.00526 11.9435 6.32503 11 5.31566 9.48594L4.54217 10.4734C4.16914 10.9451 3.8784 11.3182 3.66994 11.5925C3.47246 11.8777 3.35177 12.0533 3.30789 12.1191L3.14331 12.4153C2.83611 12.9639 2.66057 13.2382 2.61669 13.2382L2.35337 13.2546Z" fill="black"/>
</svg>
