<svg width="39" height="36" viewBox="0 0 39 36" fill="none" xmlns="http://www.w3.org/2000/svg">
<path d="M15.9562 0.117951C15.799 0.222699 15.5596 0.626724 15.5596 0.768881C15.5596 0.806291 15.4923 0.985858 15.41 1.16542C15.2603 1.50211 14.991 1.74154 14.6618 1.8388C14.0034 2.04081 12.5818 2.97606 12.0431 3.56713C11.6989 3.94871 11.2201 4.60712 11.2201 4.70439C11.2201 4.74928 11.1902 4.79417 11.1602 4.80913C11.1228 4.81662 10.9732 5.1533 10.8235 5.54237C10.4345 6.56739 10.3372 7.73458 10.4644 9.94176C10.5467 11.4381 10.5467 11.5728 10.427 11.6402C9.90327 11.9544 9.73118 12.1414 9.58154 12.538C9.39449 13.0318 9.38701 13.3161 9.53665 13.8997C9.71622 14.5955 10.0529 15.2016 11.482 17.4387C11.5792 17.5808 11.8635 18.0372 12.1179 18.4487C12.3798 18.8602 12.6117 19.2119 12.6417 19.2343C12.6716 19.2568 12.7389 19.3541 12.7913 19.4588C12.8437 19.5635 13.0756 19.8778 13.3076 20.1621C13.9809 20.9851 13.951 20.9253 13.7939 21.1497C13.7116 21.262 13.5994 21.4266 13.5395 21.5163C13.4796 21.6061 13.345 21.8007 13.2402 21.9428C13.1355 22.0924 12.926 22.3992 12.7614 22.6312C12.5219 22.9828 11.9458 23.4991 11.7887 23.4991C11.7663 23.4991 11.5717 23.5814 11.3548 23.6786C10.9283 23.8732 9.88082 24.2248 9.38701 24.337C9.22241 24.3744 8.96802 24.4343 8.82586 24.4717C8.68371 24.5016 8.26472 24.6064 7.89062 24.6962C7.524 24.7785 7.09753 24.8832 6.95538 24.9206C6.81322 24.958 6.5289 25.0254 6.31941 25.0703C5.54129 25.2424 4.24691 25.6164 3.96259 25.7511C3.10217 26.1477 2.85527 26.3048 2.2193 26.8659C1.90506 27.1353 1.24664 28.0705 1.11197 28.4147C1.06708 28.5269 0.992258 28.7215 0.939885 28.8487C0.850101 29.0581 0.745354 29.4023 0.633125 29.8587C0.610679 29.9635 0.543341 30.345 0.483486 30.7191C0.42363 31.0858 0.333847 31.5571 0.288955 31.7666C0.251545 31.9686 0.191689 32.2679 0.169244 32.425C0.146798 32.5747 0.101906 32.7243 0.0644962 32.7468C-0.0327692 32.8066 -0.0178053 33.2181 0.094424 33.5249C0.333847 34.2057 0.80521 34.6547 1.44866 34.7968C1.78535 34.8716 26.0942 34.909 26.169 34.8342C26.184 34.8193 26.1017 34.6397 25.9745 34.4452C25.75 34.086 25.3759 33.3603 25.2263 33.0011C25.1889 32.8964 25.0991 32.6944 25.0393 32.5522C24.9794 32.4101 24.8597 32.0509 24.7774 31.7666C24.2387 29.8512 24.1714 28.1977 24.5529 26.2674C24.6278 25.8559 25.0916 24.3969 25.2188 24.165C25.2712 24.0677 25.1515 23.9929 24.5529 23.7609C23.4531 23.327 23.0416 23.0127 22.3906 22.0625L21.837 21.262L22.4206 20.5661C22.7423 20.1846 23.1613 19.6309 23.3483 19.3466C23.8571 18.5834 24.6128 17.3713 24.6128 17.3264C24.6128 17.304 24.7998 16.9972 25.0243 16.6531C25.2488 16.3014 25.4358 15.9947 25.4358 15.9797C25.4358 15.9572 25.5854 15.7103 25.7725 15.4185C26.1092 14.8873 26.6329 13.4957 26.6329 13.1216C26.6329 12.6278 26.4384 12.2836 25.8772 11.8048L25.6902 11.6402L25.7426 10.6301C25.7725 10.0764 25.7949 9.07385 25.8024 8.40047C25.8099 7.33804 25.7875 7.08365 25.6229 6.41775C25.4283 5.62467 25.4208 5.59474 25.129 4.98122C24.3883 3.41749 22.6301 2.03333 19.8243 0.806291C18.313 0.147879 16.4051 -0.196291 15.9562 0.117951ZM16.0983 8.54263C16.6071 8.61745 17.9538 8.90176 18.5524 9.0514C18.6946 9.08881 18.9639 9.16363 19.151 9.20852C19.338 9.25342 19.5924 9.32075 19.7121 9.35816C19.8393 9.39557 20.191 9.47787 20.4977 9.54521C20.8045 9.61255 21.1935 9.70233 21.3581 9.74722C21.5227 9.79212 22.3083 9.83701 23.1014 9.85197C23.902 9.85945 24.5679 9.88938 24.5903 9.90435C24.6128 9.92679 24.5903 10.054 24.5529 10.1961C24.4781 10.4356 24.1489 11.8422 24.0516 12.3285L23.9993 12.5754H24.6876C25.3086 12.5754 25.3834 12.5904 25.548 12.7625C25.765 12.9719 25.7725 13.0318 25.6303 13.578C25.5106 14.0269 25.3311 14.4534 25.1365 14.7452C25.0617 14.8499 24.927 15.0819 24.8223 15.2689C24.7175 15.456 24.3509 16.062 24.0142 16.6157C23.6701 17.1693 23.296 17.7903 23.1688 17.9998C22.2111 19.6159 21.0738 20.8504 20.1087 21.3293C19.4203 21.666 19.0088 21.7707 18.1858 21.8306C17.4825 21.883 16.8764 21.7558 16.1208 21.4041C14.9536 20.8654 14.1381 19.9751 12.6491 17.6182C12.1778 16.885 11.5493 15.8899 11.25 15.4185C10.6215 14.416 10.4195 13.9895 10.3522 13.4732C10.2549 12.7475 10.5467 12.4332 11.3548 12.3884C11.6316 12.3734 11.8785 12.3584 11.9084 12.3584C11.9758 12.3509 11.9234 11.4232 11.8186 10.7423C11.7812 10.4954 11.7289 10.0315 11.7064 9.70981L11.6615 9.1337L11.871 9.0514C11.9832 9.00651 12.1329 8.94666 12.1927 8.91673C12.3274 8.84939 13.2028 8.6399 13.7265 8.54263C14.2652 8.44536 15.4698 8.44536 16.0983 8.54263ZM14.8937 21.7258C15.3127 22.0401 15.8813 22.3244 16.3078 22.4516C16.4949 22.504 16.7418 22.5713 16.8615 22.6087C17.1458 22.6985 18.8891 22.6985 19.1809 22.6087C19.3081 22.5713 19.5625 22.4965 19.7495 22.4441C20.0712 22.3468 20.3556 22.2122 20.9766 21.8605C21.3058 21.6735 21.2534 21.6361 21.7547 22.3768C21.9043 22.6012 22.226 23.0501 22.4655 23.3719L22.9069 23.9555L22.8545 24.4193C22.7872 25.0329 22.3083 26.8734 22.0689 27.4271C22.039 27.5094 21.8968 27.8461 21.7696 28.1753C21.4853 28.8786 21.3881 29.0956 20.8344 30.2777L20.4079 31.1681L20.3032 30.9137C20.2433 30.779 20.1984 30.6219 20.1984 30.577C20.1984 30.5321 20.1161 30.2253 20.0114 29.8961C19.9066 29.5669 19.7869 29.1629 19.742 28.9983C19.6971 28.8337 19.6373 28.5943 19.5999 28.4746C19.5176 28.1753 19.1659 26.9632 19.0761 26.6714C18.9864 26.4021 18.9789 26.0878 19.0537 26.013C19.0911 25.9831 19.151 25.7811 19.2033 25.5716C19.4128 24.6438 18.9041 24.0078 17.9613 24.0078C17.4451 24.0078 17.041 24.1724 16.8316 24.4717C16.6146 24.7785 16.6146 25.4967 16.8316 25.9531C16.9662 26.23 16.9737 26.3123 16.8989 26.5891C16.854 26.7612 16.7867 26.9632 16.7493 27.0305C16.7118 27.1054 16.6819 27.2326 16.6819 27.3074C16.6819 27.3897 16.652 27.5318 16.6146 27.6291C16.5472 27.8012 16.233 28.8561 16.0759 29.4472C16.031 29.6118 15.9636 29.8288 15.9337 29.9335C15.8813 30.0981 15.814 30.345 15.6719 30.8837C15.6419 30.981 15.5895 31.0558 15.5521 31.0558C15.5147 31.0558 15.3127 30.6967 15.1032 30.2478C14.8937 29.8063 14.6244 29.2452 14.5121 28.9983C13.9211 27.7563 13.3375 26.0579 12.9783 24.539C12.7988 23.7684 12.8137 23.7086 13.3749 22.9529C13.6517 22.5713 13.9959 22.085 14.1381 21.8755C14.2802 21.6585 14.4373 21.4789 14.4822 21.4789C14.5271 21.4789 14.7142 21.5912 14.8937 21.7258Z" fill="#0224E9"/>
<path d="M32.0587 21.0011C30.7569 21.1882 30.4576 21.278 29.6047 21.7044C28.5871 22.2132 27.9062 23.0287 27.9062 23.7246C27.9062 24.8917 29.2904 25.9467 31.4602 26.433C32.0587 26.5602 34.6699 26.5677 35.2386 26.433C36.4357 26.1487 37.4532 25.7148 37.9994 25.2434C38.3361 24.9591 38.6803 24.4728 38.6803 24.2857C38.6803 24.2259 38.7177 24.1735 38.7551 24.1735C38.9047 24.1735 38.8374 23.4627 38.6503 23.0811C38.2164 22.1833 37.1839 21.5548 35.3882 21.1059C34.5128 20.8814 33.1511 20.844 32.0587 21.0011ZM35.3209 21.6147C35.4181 21.6595 35.6875 21.7269 35.9119 21.7793C37.0567 22.0411 37.8572 22.6546 37.8572 23.2682C37.8572 23.5899 37.3859 24.0912 36.8696 24.3156C36.6527 24.4129 36.4207 24.5176 36.3609 24.5401C36.1888 24.6224 35.3433 24.8244 34.7822 24.9142C34.1537 25.0189 32.5525 25.0189 31.9764 24.9217C30.4426 24.6523 29.7767 24.3979 29.238 23.8892C28.2504 22.9539 29.4625 21.899 31.9091 21.5548C32.4777 21.4725 35.074 21.5249 35.3209 21.6147Z" fill="#0224E9"/>
<path d="M31.6147 22.4222C31.5249 22.6467 31.5698 22.7514 31.899 23.0731C32.0786 23.2527 32.2656 23.522 32.3255 23.6717C32.4003 23.8812 32.4676 23.9485 32.6697 23.9859C33.0512 24.0533 33.0887 23.9784 32.8792 23.5744C32.6098 23.0357 32.6173 23.0208 33.1635 23.0881C33.4179 23.118 33.964 23.1704 34.3755 23.2003C35.1986 23.2527 35.3108 23.2153 35.3108 22.8187C35.3108 22.5793 35.1986 22.5269 34.7272 22.5269C34.5327 22.5269 33.9042 22.4746 33.3281 22.4147C31.9589 22.2726 31.6746 22.2726 31.6147 22.4222Z" fill="#0224E9"/>
<path d="M28.0184 25.9711C27.577 26.824 28.3476 27.9613 29.8141 28.6347C30.3977 28.8965 30.5174 28.9414 30.7867 29.0013C30.9139 29.0237 31.2506 29.0985 31.5349 29.1659C32.2981 29.3454 34.3182 29.338 35.1637 29.1584C35.5153 29.0836 35.8894 29.0013 36.0091 28.9863C36.1214 28.9639 36.2336 28.919 36.2561 28.8816C36.2785 28.8442 36.3608 28.8142 36.4356 28.8142C36.6376 28.8142 37.6327 28.2905 37.9245 28.0286C38.3211 27.677 38.5081 27.46 38.6054 27.2505C38.6578 27.1458 38.7251 26.9961 38.7625 26.9288C38.8523 26.7567 38.8523 26.0459 38.7625 26.0459C38.7251 26.0459 38.6802 25.9786 38.6578 25.8963C38.6204 25.7616 38.5605 25.799 38.1789 26.1806C37.5729 26.7941 36.6152 27.2355 35.2011 27.5498C34.5801 27.6919 32.0662 27.6919 31.4601 27.5498C30.0909 27.2355 29.1931 26.8091 28.5571 26.1806L28.1307 25.7541L28.0184 25.9711Z" fill="#0224E9"/>
<path d="M28.0237 28.8512C27.8516 29.2478 27.874 29.5844 28.0985 30.0483C28.4202 30.7367 29.2432 31.3502 30.373 31.7392C31.0389 31.9637 31.3083 32.0161 32.3782 32.1358C33.1713 32.2256 33.4406 32.2256 34.2487 32.1358C35.7376 31.9787 36.3586 31.8141 37.2489 31.3427C37.9971 30.9462 38.678 30.2578 38.678 29.8987C38.678 29.8388 38.7154 29.7865 38.7528 29.7865C38.8725 29.7865 38.8426 29.0832 38.7079 28.8138L38.5807 28.5744L38.3039 28.8737C37.7876 29.4198 37.0843 29.8164 36.0967 30.1082C34.9595 30.4523 34.72 30.4823 33.3284 30.4823C32.1088 30.4823 31.8993 30.4598 31.1661 30.2803C30.7172 30.168 30.2982 30.0483 30.2309 30.0109C30.1635 29.981 29.9466 29.8762 29.7371 29.779C29.2133 29.5321 28.7569 29.2178 28.4202 28.8662L28.1434 28.5669L28.0237 28.8512Z" fill="#0224E9"/>
<path d="M28.0862 31.566C28.0638 31.6333 28.0114 31.768 27.974 31.8653C27.772 32.3741 28.0638 33.1671 28.6474 33.6909C29.3058 34.282 30.6076 34.8207 31.8571 35.0152C32.5455 35.1199 34.2289 35.1199 34.82 35.0152C36.0844 34.7907 37.304 34.3268 37.9399 33.8181C38.2692 33.5637 38.6807 33.0025 38.6807 32.823C38.6807 32.7556 38.7181 32.7033 38.7555 32.7033C38.8527 32.7033 38.8527 32 38.763 31.8204C38.7256 31.7531 38.6732 31.6408 38.6582 31.5735C38.6283 31.4837 38.5161 31.551 38.1794 31.8728C37.1618 32.8379 35.4485 33.3766 33.3685 33.3766C31.2286 33.3766 29.5527 32.8379 28.5202 31.8279C28.1984 31.5062 28.1161 31.4613 28.0862 31.566Z" fill="#0224E9"/>
</svg>
