<svg width="36" height="35" viewBox="0 0 36 35" fill="none" xmlns="http://www.w3.org/2000/svg">
<path d="M3.18091 1.55432L1.63672 3.09851L3.00543 4.46722L4.38585 5.83594L4.79529 5.30951C5.21643 4.77138 6.40967 3.57814 7.12327 3.00492L7.52102 2.67737L6.1874 1.33205C5.4621 0.595049 4.83039 -0.00157044 4.79529 -0.00157044C4.76019 -0.00157044 4.03489 0.700334 3.18091 1.55432Z" fill="#0224E9"/>
<path d="M31.4672 1.34375C30.7302 2.08075 30.157 2.70076 30.1804 2.72416C30.6717 3.07511 32.1457 4.49062 32.637 5.07554L33.2805 5.83594L34.6024 4.52572C35.316 3.81211 35.9126 3.1687 35.9126 3.09851C35.9126 2.98152 32.988 -0.00157044 32.871 -0.00157044C32.8359 -0.00157044 32.2042 0.606747 31.4672 1.34375Z" fill="#0224E9"/>
<path d="M16.6695 0.186976C9.96629 1.19304 4.7254 5.50975 2.64309 11.7099C1.95288 13.7805 1.8125 14.7398 1.8125 17.2784C1.8125 18.5067 1.8476 19.5478 1.89439 19.5946C1.92948 19.6414 2.10496 19.5829 2.26874 19.4777C2.5495 19.2905 2.5846 19.2905 2.98234 19.5244C3.49707 19.8286 3.9884 19.8403 4.30426 19.5595C4.52653 19.3724 4.52653 19.3022 4.42125 18.4833C4.28087 17.4538 4.37445 15.7459 4.62012 14.4122C5.69637 8.72682 10.1067 4.26972 15.9325 2.9712C17.1959 2.67874 20.3311 2.69044 21.6413 2.9712C24.5425 3.60291 27.0226 4.93653 28.9996 6.93696C30.6608 8.60983 31.7955 10.4348 32.5091 12.5873C33.211 14.6813 33.4216 17.4187 33.0473 19.5712C31.5499 28.1462 22.9866 33.4573 14.6457 30.9889C14.1777 30.8485 13.7917 30.7549 13.7683 30.7783C13.7566 30.8134 13.3354 31.258 12.8207 31.7844L11.8965 32.732L12.4698 32.9893C13.2886 33.352 15.2189 33.8667 16.377 34.0422C17.6638 34.2294 21.1383 34.1358 22.2847 33.8784C24.6127 33.352 27.2799 32.147 29.0113 30.8368C31.0702 29.2926 33.0824 26.8594 34.1586 24.6484C34.7669 23.3732 35.3869 21.4898 35.6443 20.1211C35.9251 18.6237 35.9134 15.6874 35.6443 14.1549C35.0009 10.6921 33.3982 7.65056 30.8948 5.1471C28.4264 2.69044 25.7007 1.19304 22.2847 0.409246C21.4775 0.222071 17.4767 0.0699917 16.6695 0.186976Z" fill="#0224E9"/>
<path d="M16.9155 4.09234C14.2366 4.51348 11.8267 5.68332 9.91985 7.47318C7.81414 9.45021 6.72618 11.2869 6.03598 14.036C5.73182 15.2526 5.52125 17.3934 5.66163 17.9433L5.73182 18.2474H7.18242C8.76171 18.2474 8.76171 18.2474 8.99568 18.9727C9.25304 19.7448 10.0368 20.0139 10.6452 19.5342C10.8089 19.4056 11.0078 19.3003 11.1014 19.3003C11.3588 19.3003 13.8037 21.7686 13.8037 22.026C13.8037 22.1547 13.6984 22.4355 13.5581 22.646C13.3826 22.9268 13.3358 23.1374 13.3943 23.3947C13.4879 23.8042 13.9558 24.2136 14.3418 24.2136C14.8566 24.2136 14.9736 24.588 14.9736 26.3427C14.9736 27.805 14.9502 27.9805 14.7396 28.1911C14.6109 28.3198 14.412 28.425 14.2834 28.425C14.026 28.425 13.4528 28.8579 13.4528 29.0451C13.4528 29.2205 14.8917 29.7704 15.9913 30.016C17.1027 30.2617 19.571 30.3553 20.6824 30.1915C22.8583 29.8639 25.3033 28.8111 26.9761 27.4775C31.8193 23.6287 33.3518 16.9372 30.6494 11.3921C28.9532 7.89432 25.818 5.35577 22.016 4.3614C20.7409 4.03385 18.1555 3.90517 16.9155 4.09234ZM25.9935 9.90645C26.4263 10.2925 26.2625 10.5265 24.0515 12.7375L21.899 14.89L22.2149 15.5451C22.4605 16.0715 22.519 16.3757 22.519 17.0776C22.5073 18.5867 21.8171 19.7331 20.4952 20.3765C19.805 20.7158 19.6061 20.7626 18.7755 20.7626C17.6174 20.7509 16.974 20.4935 16.1668 19.6863C14.3769 17.8965 14.9034 14.8315 17.1729 13.7201C17.7461 13.4394 17.9801 13.3926 18.834 13.3926C19.6295 13.3926 19.9337 13.4511 20.3431 13.6616C20.6356 13.802 20.9281 13.919 20.9865 13.919C21.0567 13.919 22.0628 12.9714 23.2209 11.8133C24.4961 10.5382 25.4085 9.70758 25.5489 9.70758C25.6776 9.70758 25.8765 9.78947 25.9935 9.90645ZM29.6902 16.9138C29.9124 17.0659 29.9475 17.1946 29.9475 17.955C29.9475 21.5698 27.5143 25.2548 24.1334 26.7405C23.1508 27.185 22.6945 27.0797 22.6945 26.4246C22.6945 26.0386 22.7764 25.9801 23.9345 25.3951C26.2157 24.2487 27.7716 22.2951 28.4267 19.7214C28.5554 19.2067 28.6607 18.4697 28.6607 18.0719C28.6607 17.5104 28.7192 17.2765 28.9064 17.0308C29.1871 16.6798 29.3275 16.6564 29.6902 16.9138Z" fill="#0224E9"/>
<path d="M17.8411 14.8404C15.8758 15.7528 15.9226 18.5137 17.923 19.3443C19.4789 19.9994 21.2922 18.771 21.2922 17.0748C21.2922 15.3317 19.4087 14.1151 17.8411 14.8404Z" fill="#0224E9"/>
<path d="M5.84921 19.6484C5.84921 19.8707 4.98352 20.7129 4.58578 20.8884C4.10614 21.0873 3.41594 21.099 2.9714 20.9352C2.66724 20.8182 2.59705 20.8533 2.01213 21.4382L1.36871 22.0817L1.5091 22.6666C1.75476 23.6609 1.25173 24.7372 0.339254 25.2168C0.0116984 25.3806 0 25.4157 0 26.2931L0.0116984 27.1939L0.479635 27.4863C0.982667 27.7905 1.4506 28.469 1.57929 29.0773C1.61438 29.2762 1.59098 29.6973 1.5091 30.0015L1.36871 30.5513L2.01213 31.1947C2.60875 31.7796 2.67894 31.8264 2.9246 31.6978C3.08838 31.6159 3.46273 31.5691 3.87217 31.6042C4.66767 31.6627 5.34617 32.0721 5.68543 32.6921L5.9077 33.1016H6.84357L7.77944 33.0899L8.0836 32.5868C8.29417 32.2476 8.56324 32.0019 8.91419 31.8381C9.46402 31.5691 10.3882 31.4989 10.7508 31.6861C10.9146 31.7796 11.0901 31.6744 11.6282 31.1245L12.295 30.446L12.1663 29.9196C11.9324 28.9954 12.3769 27.9426 13.2075 27.4629L13.6871 27.1939V26.2931V25.404L13.1841 25.1115C12.3418 24.6202 11.909 23.5323 12.1663 22.573L12.3067 22.07L11.675 21.4382C11.0901 20.8533 11.0199 20.8182 10.7157 20.9352C9.79157 21.2862 8.58663 20.8767 8.0836 20.0461L7.77944 19.5431L6.82017 19.5314C6.24695 19.5314 5.84921 19.5782 5.84921 19.6484ZM8.75041 22.2688C9.68629 22.7017 10.6339 23.696 11.0082 24.6436C11.3709 25.5912 11.3826 27.0418 11.0082 27.9777C10.6456 28.9135 9.76817 29.8377 8.79721 30.3173C8.06021 30.68 7.94322 30.7034 6.78508 30.7034C5.63863 30.7034 5.50995 30.68 4.85484 30.329C3.97746 29.8845 3.12348 28.9837 2.71403 28.0946C2.45667 27.5214 2.40987 27.2641 2.40987 26.3165C2.40987 25.3572 2.45667 25.1115 2.71403 24.5266C3.26386 23.3568 4.36351 22.3858 5.61524 21.9764C5.77902 21.9296 6.38733 21.8945 6.96056 21.9062C7.83794 21.9296 8.1421 21.9881 8.75041 22.2688Z" fill="#0224E9"/>
<path d="M5.40344 23.4675C3.78906 24.2747 3.18074 26.24 4.04642 27.8544C4.63134 28.9189 5.59061 29.4688 6.84234 29.4688C8.08237 29.4571 9.07674 28.8838 9.64996 27.831C9.94242 27.2928 9.98921 27.0823 9.98921 26.3219C9.98921 25.386 9.79034 24.8479 9.18202 24.1226C8.37483 23.1633 6.62007 22.8591 5.40344 23.4675Z" fill="#0224E9"/>
</svg>
