<?xml version="1.0" standalone="no"?>
<!DOCTYPE svg PUBLIC "-//W3C//DTD SVG 20010904//EN"
 "http://www.w3.org/TR/2001/REC-SVG-20010904/DTD/svg10.dtd">
<svg version="1.0" xmlns="http://www.w3.org/2000/svg"
 width="714.000000pt" height="332.000000pt" viewBox="0 0 714.000000 332.000000"
 preserveAspectRatio="xMidYMid meet">

<g transform="translate(0.000000,332.000000) scale(0.100000,-0.100000)"
fill="#ffffff" stroke="none">
<path d="M4722 3148 c-17 -17 -15 -55 3 -62 9 -3 91 -15 183 -27 350 -43 652
-120 968 -245 433 -170 809 -453 971 -730 16 -27 45 -85 64 -129 33 -79 34
-82 33 -220 0 -126 -3 -148 -28 -220 -146 -425 -586 -778 -1254 -1006 -363
-123 -873 -220 -1377 -261 -217 -18 -1146 -18 -1350 0 -749 65 -1387 221
-1880 462 -432 211 -719 470 -813 732 -63 179 -6 433 142 628 301 397 845 676
1636 841 279 58 625 89 995 89 317 0 500 -11 761 -45 435 -57 811 -149 1103
-269 74 -30 94 -32 111 -11 30 36 -8 59 -210 130 -349 122 -719 206 -1100 249
-1006 114 -1955 -12 -2660 -352 -572 -276 -920 -691 -920 -1099 0 -116 11
-163 65 -278 212 -454 880 -847 1800 -1060 287 -66 667 -121 1020 -147 219
-16 1012 -16 1244 0 715 50 1264 165 1735 363 532 224 906 553 1054 929 71
177 81 387 28 545 -88 261 -346 547 -666 737 -286 169 -587 286 -951 367 -217
48 -266 56 -459 76 -85 8 -173 17 -196 20 -24 2 -46 -1 -52 -7z"/>
</g>
</svg>
