<svg width="36" height="36" viewBox="0 0 36 36" fill="none" xmlns="http://www.w3.org/2000/svg">
<path d="M6.32292 0.184797C3.47206 0.961296 1.28677 3.00238 0.3106 5.79778C0.0221857 6.62974 0 6.79613 0 8.46006C0 10.124 0.0221857 10.2904 0.3106 11.1223C0.765407 12.4202 1.41988 13.4407 2.42933 14.4613C3.44988 15.4707 4.47042 16.1252 5.76828 16.58C6.60024 16.8684 6.76664 16.8906 8.43056 16.8906C10.0945 16.8906 10.2609 16.8684 11.0928 16.58C13.6331 15.6926 15.6298 13.707 16.5062 11.2C16.8057 10.3569 16.85 10.0463 16.8944 8.78175C16.9277 7.58373 16.9055 7.17329 16.7169 6.45226C15.9959 3.57921 13.8993 1.30517 11.0928 0.35119C10.3274 0.0849615 9.99466 0.0405901 8.65242 0.00731154C7.38784 -0.0148742 6.95522 0.0184044 6.32292 0.184797ZM8.96302 1.49375C9.05176 1.67124 9.4622 2.73615 9.88373 3.87872L10.6491 5.95308L12.9897 5.98636C15.5855 6.01963 15.7297 6.06401 15.6742 6.67411C15.6409 6.98471 15.4302 7.17329 13.7551 8.37132C12.7235 9.11454 11.825 9.7912 11.7695 9.86885C11.714 9.96869 11.947 10.6564 12.4684 11.8656C13.256 13.7181 13.3669 14.1285 13.1228 14.3725C12.8122 14.6831 12.4018 14.4946 10.4273 13.0747L8.43056 11.6437L7.93139 12.0098C4.43714 14.5389 4.10435 14.7386 3.73829 14.3725C3.49425 14.1285 3.60518 13.7181 4.39277 11.8656C4.91413 10.6564 5.14708 9.96869 5.09162 9.86885C5.03615 9.7912 4.14873 9.11454 3.106 8.37132C1.44207 7.17329 1.22021 6.97362 1.18693 6.67411C1.13147 6.06401 1.27568 6.01963 3.8714 5.98636L6.21199 5.95308L6.9774 3.87872C7.98685 1.13878 7.96466 1.19425 8.43056 1.19425C8.74116 1.19425 8.841 1.24971 8.96302 1.49375Z" fill="#0224E9"/>
<path d="M8.28823 3.86722C7.41189 6.21891 7.10129 6.98431 6.95708 7.09524C6.84616 7.19508 6.26933 7.26164 5.28206 7.29491L3.77344 7.35038L4.93819 8.17125C6.34698 9.16961 6.60211 9.39146 6.60211 9.62441C6.60211 9.72425 6.40244 10.2678 6.1584 10.8446C5.90326 11.4104 5.72578 11.9095 5.73687 11.965C5.75906 12.0094 6.32479 11.6544 6.99036 11.1774C7.66703 10.6893 8.31041 10.3011 8.43243 10.3011C8.55446 10.3011 9.20893 10.6893 9.8745 11.1774C10.5512 11.6544 11.1058 12.0094 11.128 11.965C11.1391 11.9095 10.9616 11.4104 10.7065 10.8446C10.4624 10.2678 10.2628 9.72425 10.2628 9.62441C10.2628 9.39146 10.5179 9.16961 11.9267 8.17125L13.0914 7.35038L11.5828 7.29491C10.5955 7.26164 10.0187 7.19508 9.90778 7.09524C9.80795 7.01759 9.47516 6.24109 9.15347 5.37585C8.83178 4.51061 8.52118 3.7563 8.47681 3.70083C8.42134 3.64537 8.34369 3.71192 8.28823 3.86722Z" fill="#0224E9"/>
<path d="M24.6276 0.184797C21.7767 0.961296 19.5915 3.00238 18.6153 5.79778C18.3269 6.62974 18.3047 6.79613 18.3047 8.46006C18.3047 10.124 18.3269 10.2904 18.6153 11.1223C19.0701 12.4202 19.7246 13.4407 20.734 14.4613C21.7546 15.4707 22.7751 16.1252 24.073 16.58C24.9049 16.8684 25.0713 16.8906 26.7353 16.8906C28.3992 16.8906 28.5656 16.8684 29.3975 16.58C31.9378 15.6926 33.9345 13.707 34.8108 11.2C35.1104 10.3569 35.1547 10.0463 35.1991 8.78175C35.2324 7.58373 35.2102 7.17329 35.0216 6.45226C34.3006 3.57921 32.204 1.30517 29.3975 0.35119C28.6321 0.0849615 28.2993 0.0405901 26.9571 0.00731154C25.6925 -0.0148742 25.2599 0.0184044 24.6276 0.184797ZM27.3232 1.77107C27.3565 2.38118 27.3675 2.41446 27.6449 2.41446C28.1995 2.41446 28.8207 2.68069 29.3421 3.15768C30.052 3.78997 30.3293 4.45554 30.3626 5.64248L30.3959 6.57428H29.7858H29.1757L29.1202 5.62029C29.0537 4.56647 28.8873 4.2115 28.3104 3.85653C28.1108 3.73451 27.8224 3.63467 27.656 3.63467H27.3454V5.73122V7.82777L27.8224 7.89433C28.4325 7.98307 29.3643 8.52662 29.7192 8.99252C30.2073 9.6359 30.3626 10.1573 30.3626 11.1889C30.3626 12.276 30.1297 12.9748 29.5306 13.6071C29.098 14.0509 28.1995 14.5057 27.7114 14.5057C27.3565 14.5057 27.3565 14.5057 27.3232 15.138L27.2899 15.7813H26.7353H26.1806L26.1473 15.138C26.1141 14.5057 26.1141 14.5057 25.7591 14.5057C24.8384 14.5057 23.5183 13.4407 23.2521 12.4868C23.1744 12.2205 23.1079 11.6326 23.0968 11.1778L23.0746 10.3458H23.6847H24.2948L24.3503 11.2998C24.4168 12.3537 24.5832 12.7086 25.1601 13.0636C25.3597 13.1856 25.6482 13.2854 25.8256 13.2854H26.1251V11.1889V9.09235L25.6482 9.0258C24.6609 8.8705 23.6958 8.10509 23.2854 7.12892C23.0635 6.58537 23.0413 5.11002 23.2521 4.41117C23.5405 3.42391 24.8495 2.41446 25.8367 2.41446C26.1141 2.41446 26.1251 2.39227 26.1251 1.82654C26.1251 1.49375 26.1584 1.19425 26.2028 1.14987C26.2472 1.1055 26.5134 1.08332 26.7907 1.1055L27.2899 1.13878L27.3232 1.77107Z" fill="#0224E9"/>
<path d="M25.1463 3.85939C24.5473 4.22545 24.3477 4.66917 24.3477 5.7008C24.3477 6.45512 24.392 6.66588 24.6028 6.96539C24.9134 7.44238 25.3127 7.7197 25.7675 7.80844L26.1225 7.875V5.75627V3.63753H25.823C25.6455 3.63753 25.346 3.73737 25.1463 3.85939Z" fill="#0224E9"/>
<path d="M27.3438 11.1703V13.2891H27.6543C28.0648 13.2891 28.6305 12.923 28.8967 12.4904C29.2295 11.9357 29.2184 10.4715 28.8746 9.96121C28.5529 9.48422 28.1535 9.20689 27.7098 9.11815L27.3438 9.0405V11.1703Z" fill="#0224E9"/>
<path d="M30.427 20.3413L30.3938 21.2176L25.2356 21.2731C20.2882 21.3285 20.0552 21.3396 19.4451 21.5726C18.7019 21.8499 17.7812 22.4378 17.3153 22.9259L16.9936 23.2587L16.3946 22.7151C16.0729 22.4156 15.5404 22.0496 15.2187 21.8943C13.9653 21.2842 13.7989 21.2731 7.52031 21.2731H1.71875V22.4933V23.7024L7.40938 23.7357L13.0889 23.7689L13.6768 24.0795C14.8416 24.6897 15.5404 25.6991 15.6957 26.997C15.9509 29.0159 15.1633 30.5689 13.4883 31.3565L12.8671 31.6449L7.29845 31.6781L1.71875 31.7114V32.8762V34.0298H7.70889C13.4661 34.0298 13.7323 34.0187 14.3868 33.7969C15.1633 33.5417 16.0507 32.9982 16.5166 32.4879C16.7052 32.2993 16.9049 32.144 16.9714 32.144C17.038 32.144 17.2376 32.2993 17.4262 32.4879C17.8699 32.9649 18.5577 33.4197 19.2565 33.7192C19.8445 33.9744 19.9443 33.9744 25.1247 34.0298L30.3938 34.0853L30.4492 34.9505L30.5047 35.8047L31.98 34.3404L33.4443 32.8651L31.9468 31.3675L30.4603 29.8811L30.427 30.7685L30.3938 31.6449L26.4003 31.6781C24.093 31.7003 22.0408 31.656 21.5306 31.5894C19.2122 31.2899 17.9365 29.504 18.2471 26.997C18.4024 25.6991 19.1012 24.6897 20.266 24.0795L20.8539 23.7689H25.6238H30.3938L30.427 24.5676C30.4492 25.0113 30.4714 25.3774 30.4936 25.3774C30.6045 25.3774 33.3334 22.5709 33.3334 22.46C33.3334 22.3823 32.69 21.6835 31.8913 20.8848L30.4603 19.4538L30.427 20.3413Z" fill="#0224E9"/>
</svg>
