<svg width="37" height="35" viewBox="0 0 37 35" fill="none" xmlns="http://www.w3.org/2000/svg">
<path d="M14.5126 1.2534C12.5154 1.93994 10.8407 2.53287 10.799 2.57448C10.7678 2.61608 10.6846 3.20901 10.6222 3.89555C10.5598 4.58209 10.4662 5.6119 10.4142 6.18402C9.97728 10.7298 9.97728 10.7402 10.0917 11.6243C10.2789 13.0702 10.7366 14.2873 11.4752 15.3899C11.9121 16.0244 12.505 16.7422 12.609 16.7422C12.6506 16.7422 12.6922 14.9738 12.6922 12.7998V8.85737L14.7935 6.69372C15.9585 5.49748 17.2172 4.18681 17.602 3.79153L18.3094 3.06338L19.0167 3.79153C19.4016 4.18681 20.6603 5.49748 21.8253 6.68332L23.9265 8.85737V12.7998C23.9265 14.9634 23.9682 16.7422 24.0098 16.7422C24.1138 16.7422 24.7067 16.0244 25.1436 15.3899C25.8821 14.2873 26.3398 13.0702 26.5271 11.6243C26.6415 10.7402 26.6415 10.7298 26.2046 6.18402C26.1526 5.6119 26.059 4.58209 25.9966 3.89555C25.9342 3.20901 25.8509 2.61608 25.8093 2.57448C25.7261 2.48086 18.4342 -0.00525524 18.2678 0.0051469C18.2054 0.0051469 16.5202 0.566862 14.5126 1.2534Z" fill="#0224E9"/>
<path d="M16.5889 7.91388L14.9453 9.60943L16.6305 9.64064C17.5458 9.65104 19.0646 9.65104 19.9799 9.64064L21.6651 9.60943L20.0216 7.91388C19.127 6.98809 18.3468 6.22873 18.3052 6.22873C18.2636 6.22873 17.4834 6.98809 16.5889 7.91388Z" fill="#0224E9"/>
<path d="M4.36719 6.60325C4.36719 6.64486 4.56483 7.42502 4.80408 8.34041L5.24097 10.0048L4.83528 11.5755C4.61684 12.4389 4.4192 13.2086 4.38799 13.271C4.35679 13.375 4.77287 13.4062 6.28118 13.4062C7.3422 13.4062 8.21598 13.375 8.21598 13.323C8.20558 13.2814 8.14316 12.9486 8.05995 12.5741C7.87271 11.7107 7.87271 10.0048 8.05995 8.15317C8.14316 7.35221 8.21598 6.66566 8.21598 6.61365C8.21598 6.57205 7.3526 6.54084 6.29158 6.54084C5.23057 6.54084 4.36719 6.57205 4.36719 6.60325Z" fill="#0224E9"/>
<path d="M28.3984 6.61365C28.3984 6.66566 28.4713 7.35221 28.5545 8.15317C28.7521 10.036 28.7521 11.5235 28.5545 12.5429C28.4713 12.9902 28.3984 13.3646 28.3984 13.375C28.3984 13.3958 29.2722 13.4062 30.3332 13.4062C31.8415 13.4062 32.2576 13.375 32.2264 13.271C32.1952 13.2086 31.9976 12.4389 31.7791 11.5755L31.3734 10.0048L31.8103 8.34041C32.0496 7.42502 32.2472 6.64486 32.2472 6.60325C32.2472 6.57205 31.3839 6.54084 30.3228 6.54084C29.2618 6.54084 28.3984 6.57205 28.3984 6.61365Z" fill="#0224E9"/>
<path d="M14.7695 15.0764V18.3011L15.9138 18.8732C16.5379 19.1853 17.0996 19.4453 17.162 19.4453C17.2348 19.4453 17.266 18.1554 17.266 15.6485V11.8518H16.0178H14.7695V15.0764Z" fill="#0224E9"/>
<path d="M19.3477 15.6981V19.5469L20.5959 18.9227L21.8442 18.2986V15.074V11.8493H20.5959H19.3477V15.6981Z" fill="#0224E9"/>
<path d="M33.5989 17.7685C32.9956 17.9557 32.5691 18.3302 29.7709 21.1284L26.8271 24.0826L26.6815 24.7275C26.4734 25.6221 26.1822 26.1526 25.5477 26.7767C24.9443 27.3801 24.133 27.817 23.3112 27.973C22.9887 28.0354 20.8875 28.077 18.3494 28.077H13.9389V26.9848V25.8926H18.495H23.0615L23.5192 25.6533C25.0379 24.8523 25.0067 22.6263 23.4568 21.9293C23.0719 21.7525 22.6142 21.7317 16.3834 21.7317H9.726L8.42573 23.032L7.12546 24.3322H3.56793H0V29.5333V34.7344H11.5256H23.0407L29.6149 28.1602C33.2244 24.5403 36.2619 21.4092 36.3659 21.2116C36.6259 20.7227 36.6259 19.5264 36.3763 19.0584C35.8354 18.0493 34.5871 17.4772 33.5989 17.7685Z" fill="#0224E9"/>
</svg>
