<svg width="36" height="36" viewBox="0 0 36 36" fill="none" xmlns="http://www.w3.org/2000/svg">
<path d="M19.4667 0.132209C20.4056 0.366947 21.4977 0.979305 22.2835 1.72434C23.1306 2.53061 23.5491 3.194 23.9369 4.32687C24.1818 5.03108 24.2227 5.30664 24.2227 6.266C24.2125 8.10308 23.6715 9.39924 22.355 10.7056C19.8137 13.2265 15.7721 13.1346 13.3329 10.5117C12.2408 9.32779 11.6897 7.88875 11.6897 6.21497C11.6999 4.43913 12.251 3.13277 13.5574 1.8162C14.1698 1.20384 14.5168 0.948687 15.2006 0.622096C15.6803 0.397565 16.313 0.162827 16.609 0.101591C17.3234 -0.0412924 18.7829 -0.0310865 19.4667 0.132209ZM16.1803 2.21423C15.6394 2.46938 15.5068 2.57144 15.5068 2.76535C15.5068 2.93885 16.2824 3.77574 18.4052 5.89859C20.773 8.25617 21.3344 8.77667 21.4977 8.72564C21.763 8.64399 22.2427 7.59278 22.3346 6.87836C22.5795 5.10252 21.5997 3.194 20.0076 2.34691C19.2013 1.91825 18.7727 1.8264 17.7317 1.86723C17.007 1.89784 16.7315 1.95908 16.1803 2.21423ZM14.0983 4.09213C13.6391 4.85758 13.4247 5.99044 13.5676 6.86815C13.9146 8.991 15.864 10.6954 17.9562 10.7056C18.9768 10.7056 20.4056 10.1443 20.4056 9.74624C20.4056 9.48088 14.7209 3.76554 14.4657 3.76554C14.3739 3.76554 14.2106 3.91863 14.0983 4.09213Z" fill="#0224E9"/>
<path d="M18.6806 2.63504C19.7829 2.85957 20.8035 3.69647 21.3035 4.76809C21.5383 5.26819 21.5791 5.48251 21.5689 6.26837C21.5689 6.76846 21.5077 7.31959 21.4362 7.48288L21.3138 7.78906L18.9256 5.40086C17.609 4.08429 16.5271 2.97184 16.5271 2.94122C16.5271 2.69628 17.9968 2.49216 18.6806 2.63504Z" fill="#0224E9"/>
<path d="M17.047 7.19617C18.9555 9.10468 19.4045 9.60478 19.2821 9.68643C19.2004 9.73746 19.078 9.78849 19.0269 9.78849C18.9657 9.79869 18.7105 9.83951 18.435 9.88034C16.4244 10.2069 14.4138 8.56377 14.3016 6.49195C14.2607 5.84898 14.4138 4.94065 14.5873 4.83859C14.6179 4.81817 15.7304 5.8796 17.047 7.19617Z" fill="#0224E9"/>
<path d="M25.1012 15.3961C25.7952 15.6308 26.4994 16.3452 26.7648 17.1005C27.071 17.9374 27.5404 18.2537 28.51 18.2537H29.0509L29.1122 19.2437C29.153 19.7948 29.1836 21.6829 29.1836 23.4282V26.6226H28.8774C28.6223 26.6226 28.4794 26.5104 27.9895 25.8674C27.3261 25.0305 26.9281 24.7039 26.3565 24.5712C25.4686 24.3671 24.448 24.8162 24.1112 25.5816C24.0092 25.7857 23.9173 25.9797 23.9071 26.0001C23.8867 26.0307 23.7234 25.9082 23.5397 25.7347C23.06 25.2755 22.6314 25.0917 22.0394 25.0917C21.1107 25.0917 20.3146 25.6939 20.0799 26.5716L19.9676 27.0003L19.2226 26.9901C18.5592 26.9798 18.4469 27.0105 18.0387 27.286C17.3651 27.7657 17.1303 28.2556 17.161 29.0925C17.2018 29.7763 17.1916 29.7865 16.9364 29.7865C16.2832 29.7967 15.2933 30.5621 15.1402 31.1949C15.0483 31.5521 14.0277 32.7871 13.7011 32.9401C13.3235 33.1136 12.9153 33.0728 12.6193 32.8381C12.2927 32.5931 12.0886 31.9808 12.2111 31.644C12.2621 31.5113 13.497 30.1233 14.9463 28.5414C16.4057 26.9696 17.61 25.602 17.6304 25.5C17.661 25.2959 17.4161 25.0611 17.212 25.1122C17.1405 25.1326 16.171 26.1328 15.0585 27.3371C11.4048 31.2868 11.5068 31.1949 10.8026 30.9704C10.374 30.8275 10.0474 30.2458 10.1494 29.7967C10.1903 29.6028 10.9353 28.6945 12.2008 27.2656C15.7831 23.2649 15.9362 23.0812 15.8954 22.826C15.875 22.6831 15.7831 22.5811 15.6505 22.5607C15.4361 22.53 15.2218 22.7546 10.9251 27.5718C10.2821 28.2964 9.66976 28.9292 9.57791 28.9802C8.83287 29.3783 7.74083 28.4087 8.04701 27.633C8.09804 27.5004 9.16967 26.1532 10.425 24.6427L12.7111 21.8871H13.7726C14.7319 21.8769 14.8952 21.8462 15.3545 21.6013C15.8342 21.3564 16.3445 20.8971 16.8037 20.3153L16.9874 20.0806L18.3653 21.4686C20.0288 23.1424 20.5595 23.469 21.8353 23.5404C22.8661 23.6017 23.6417 23.3669 24.2031 22.8464C24.5603 22.4994 24.5909 22.4178 24.5909 21.9381C24.5909 21.4074 24.5705 21.3768 23.9071 20.6726C22.2844 18.9477 19.7124 16.386 19.3552 16.1411C19.1511 15.9982 18.9776 15.8451 18.9776 15.8145C18.9776 15.6206 20.0594 15.3757 21.274 15.294C23.4274 15.1409 24.4684 15.1715 25.1012 15.3961Z" fill="#0224E9"/>
<path d="M35.3161 15.958C35.4589 16.0397 35.6324 16.2336 35.6937 16.3867C35.7753 16.5806 35.8162 18.5707 35.8366 22.5205L35.8672 28.3787L35.5508 28.6645C35.2242 28.9502 35.214 28.9502 33.4178 29.0217C31.4888 29.1033 31.0704 29.0523 30.5703 28.6542C29.9273 28.1542 29.9477 28.3379 29.9477 22.3163C29.9477 16.948 29.9477 16.8357 30.162 16.5602C30.6723 15.8764 30.7336 15.856 32.9891 15.8355C34.6323 15.8151 35.1017 15.8355 35.3161 15.958Z" fill="#0224E9"/>
<path d="M17.0368 15.9705C18.4656 16.2767 18.8024 16.5216 21.456 19.216C23.6298 21.4205 23.8748 21.7063 23.8544 21.9716C23.834 22.2268 23.7319 22.3288 23.3135 22.533C22.9052 22.7473 22.6603 22.7983 22.0377 22.7983C20.813 22.7983 20.4048 22.5432 18.6085 20.6551C17.7818 19.7876 17.047 19.0527 16.9551 19.0221C16.751 18.9507 16.5775 19.1038 16.3224 19.6141C15.9856 20.2672 15.4242 20.7877 14.8221 21.0123C13.8831 21.3593 13.1279 21.2572 12.24 20.6551C11.8215 20.3693 11.6684 20.3183 11.5153 20.3999C11.2194 20.5632 11.2806 20.8592 11.6888 21.1858L12.0563 21.4818L9.78033 24.2272C8.5352 25.7478 7.44316 27.1461 7.36151 27.34C6.93286 28.3708 7.84119 29.7894 8.93323 29.7894H9.35168L9.40271 30.2385C9.43332 30.4834 9.5558 30.8304 9.67827 31.0039L9.9028 31.3203H9.66806C9.53538 31.3203 9.15776 31.1774 8.82097 31.0141C8.33108 30.7692 8.07593 30.708 7.53501 30.708H6.86142L6.80018 29.6159C6.75936 29.024 6.72874 26.7072 6.72874 24.4823V20.4305L7.56563 20.3591C8.98426 20.2468 9.54559 19.8386 10.0049 18.6139C10.4131 17.532 11.4235 16.6645 12.8523 16.1848C13.9648 15.8072 15.8631 15.7154 17.0368 15.9705Z" fill="#0224E9"/>
<path d="M4.94425 18.8067C5.32187 18.97 5.78114 19.4905 5.8934 19.8681C5.93423 20.0212 5.96484 22.6952 5.96484 25.808V31.4723L5.73011 31.8091C5.28104 32.4317 5.05651 32.4929 2.90305 32.5235C0.821031 32.5541 0.637323 32.5133 0.29032 32.0336C0.127025 31.7989 0.106613 31.309 0.0351708 25.7366C-0.0362711 19.2149 -0.0464771 19.2558 0.49444 18.8985C0.718971 18.7353 1.02515 18.7148 2.69893 18.6842C4.16859 18.674 4.70951 18.6944 4.94425 18.8067Z" fill="#0224E9"/>
<path d="M26.6725 25.524C26.8358 25.6464 27.3053 26.1976 27.7135 26.7589C28.3871 27.657 28.4688 27.8101 28.4688 28.2183C28.4688 29.0858 27.9891 29.5859 27.1522 29.5859C26.6215 29.5859 26.3255 29.3308 25.3457 28.0244C24.5803 27.0038 24.5701 26.9936 24.6211 26.4833C24.6619 26.0649 24.7334 25.922 25.0395 25.6362C25.3457 25.3505 25.4784 25.2994 25.8866 25.2994C26.2234 25.3096 26.4684 25.3709 26.6725 25.524Z" fill="#0224E9"/>
<path d="M22.5675 25.9245C22.9961 26.0878 25.8742 29.8742 25.9661 30.3845C26.1396 31.4562 25.0475 32.2828 24.0882 31.793C23.7718 31.6195 20.9447 27.9861 20.7916 27.5269C20.4344 26.4961 21.4958 25.5367 22.5675 25.9245Z" fill="#0224E9"/>
<path d="M19.5279 27.7476C19.681 27.7987 19.9055 27.9211 20.0178 28.0232C20.2933 28.2681 22.5386 31.1666 22.7121 31.5136C22.9979 32.0546 22.7836 32.8812 22.2733 33.2078C21.9365 33.4324 21.2017 33.4426 20.8751 33.2282C20.6403 33.065 18.742 30.6665 18.1297 29.7582C17.8133 29.2785 17.7827 28.9009 18.0174 28.411C18.2827 27.8395 18.9155 27.5639 19.5279 27.7476Z" fill="#0224E9"/>
<path d="M17.6068 30.6476C17.9946 30.8211 19.6174 32.8827 19.7909 33.4237C19.944 33.8931 19.8011 34.4443 19.4337 34.7913C19.1071 35.0974 18.2702 35.1995 17.913 34.9648C17.6782 34.8015 16.1575 32.9134 15.933 32.4745C15.6064 31.8723 15.9432 30.913 16.576 30.6476C17.0046 30.4741 17.1986 30.4741 17.6068 30.6476Z" fill="#0224E9"/>
<path d="M15.7924 33.5799C16.0985 33.9779 16.3129 34.3249 16.2822 34.3555C16.1598 34.478 15.5882 33.9983 15.3943 33.6003C15.0167 32.8246 15.2208 32.8246 15.7924 33.5799Z" fill="#0224E9"/>
</svg>
