<svg width="36" height="35" viewBox="0 0 36 35" fill="none" xmlns="http://www.w3.org/2000/svg">
<path d="M23.7941 2.78539C22.2734 4.30608 21.0224 5.62186 21.0224 5.69736C21.0224 5.77285 21.292 6.65723 21.6371 7.67102L22.2411 9.50448L21.6156 10.1408L20.99 10.7663L20.1164 10.0977C18.6928 9.01915 17.0535 8.25342 15.1769 7.80044C13.9474 7.49846 10.9383 7.53082 9.6657 7.85437C1.79261 9.83882 -2.23022 18.2943 1.27492 25.5095C1.95438 26.9008 2.55835 27.7528 3.67999 28.8852C5.2654 30.4922 7.30377 31.6462 9.59021 32.2502C11.0031 32.6169 13.3865 32.6708 14.8641 32.358C15.4896 32.2394 16.0289 32.11 16.072 32.0776C16.1152 32.056 15.9426 31.6354 15.6838 31.1393C14.9612 29.7804 14.3464 27.8714 14.3356 26.9871C14.3356 26.5988 14.368 26.5988 13.3434 26.7606C12.4698 26.9008 11.2727 26.7606 10.2805 26.4262C8.26364 25.7252 6.52725 23.827 5.988 21.724C5.76151 20.8612 5.76151 19.265 5.988 18.4129C6.57039 16.1481 8.27443 14.347 10.5069 13.6352C11.5962 13.2793 13.1493 13.2361 14.2278 13.5273C14.9288 13.7214 16.1044 14.2823 16.6005 14.6705L16.8701 14.8754L15.6838 16.0726L14.4866 17.2697L13.9582 17.0217C13.5268 16.8275 13.2248 16.7736 12.5022 16.7736C11.4776 16.7736 11.0031 16.957 10.2373 17.6472C8.86761 18.8875 8.86761 21.2386 10.2373 22.4789C10.9923 23.1584 11.4668 23.3417 12.5022 23.3525C13.2787 23.3525 13.5052 23.3094 13.9582 23.0721C14.4866 22.8025 14.5082 22.7701 14.7778 21.9289C14.9396 21.4543 15.2416 20.6994 15.4465 20.2572C15.8671 19.3944 15.8671 19.2218 15.4896 18.4884L15.3171 18.1541L16.5358 16.9462L17.7545 15.7275L17.9918 16.1157C18.132 16.3314 18.2506 16.504 18.283 16.504C18.3045 16.504 18.6065 16.2883 18.9409 16.0402C20.1056 15.1666 21.443 14.4872 22.748 14.1205C23.0176 14.045 23.2765 13.9479 23.3196 13.9048C23.4274 13.8185 23.0284 13.1498 22.3382 12.2655L21.842 11.6399L22.4891 10.9928L23.1255 10.3565L24.905 10.9497C25.8757 11.2732 26.7708 11.5429 26.8894 11.5429C27.0297 11.5429 28.0974 10.5506 29.8338 8.82502C32.282 6.37681 32.5624 6.06405 32.5624 5.75128C32.5624 5.30909 32.4869 5.27674 30.276 4.54335L28.5827 3.98253L27.968 2.1275C27.6336 1.10292 27.3101 0.207759 27.2454 0.132264C27.1914 0.0675536 27.0189 0.00284322 26.8571 0.00284322C26.6306 0.00284322 26.0266 0.552881 23.7941 2.78539ZM26.9865 2.90402C27.2022 3.55113 27.3856 4.14431 27.3856 4.23059C27.3856 4.41393 23.2225 8.57697 23.1578 8.45833C23.1255 8.40441 22.9205 7.81123 22.6941 7.13177L22.295 5.91306L24.3765 3.82076C25.5305 2.66675 26.4904 1.72845 26.5228 1.72845C26.5551 1.72845 26.76 2.25692 26.9865 2.90402ZM29.6181 5.57872C30.2867 5.80521 30.8368 6.01012 30.8368 6.04248C30.8368 6.07483 29.8985 7.0347 28.7445 8.18871L26.6522 10.2702L25.4335 9.87117C24.754 9.64469 24.1716 9.45056 24.1393 9.42899C24.0745 9.38585 28.2484 5.17967 28.3562 5.17967C28.3778 5.17967 28.9494 5.36302 29.6181 5.57872Z" fill="#0224E9"/>
<path d="M24.5811 16.1254C23.5134 16.3195 22.7261 16.5676 21.9388 16.9558C19.2857 18.304 17.4091 20.6875 16.8051 23.5131C16.5678 24.6348 16.6218 26.8349 16.913 27.8811C18.0778 32.0981 21.7878 34.9453 26.0911 34.9453C30.3943 34.9453 34.0828 32.1088 35.2799 27.8811C35.4848 27.1585 35.5172 26.7594 35.5172 25.4545C35.5064 24.0632 35.4741 23.7828 35.2152 22.92C34.072 19.156 31.1816 16.6538 27.3098 16.0822C26.3391 15.9312 25.6057 15.942 24.5811 16.1254ZM27.4392 17.3009C30.7286 17.8833 33.2416 20.1806 34.1367 23.4161C34.2769 23.9122 34.3308 24.4946 34.3308 25.5084C34.3308 27.083 34.1475 27.9027 33.468 29.24C31.2463 33.6619 25.541 35.1394 21.4535 32.3461C19.7818 31.2029 18.6494 29.6283 18.0885 27.6438C17.7758 26.5437 17.7542 24.4622 18.0454 23.4161C18.7788 20.7522 20.6554 18.6814 23.1899 17.7216C24.6566 17.1715 25.9616 17.0421 27.4392 17.3009Z" fill="#0224E9"/>
<path d="M25.2487 19.6702C24.3859 19.9506 23.7064 20.5762 23.3397 21.4066C23.2858 21.5253 23.2103 22.0861 23.178 22.6469L23.124 23.6607L22.8005 23.7254C22.3152 23.8333 22.0348 24.0166 21.7004 24.448L21.3984 24.8363V27.5541V30.272L21.7112 30.671C22.2397 31.3612 22.3475 31.3828 26.0899 31.3828C29.8324 31.3828 29.9402 31.3612 30.4687 30.671L30.7814 30.272V27.5433V24.8255L30.4471 24.4049C30.2206 24.1245 29.951 23.9411 29.5843 23.8117L29.0558 23.6391L29.0019 22.6253C28.9372 21.4929 28.7538 21.0076 28.1607 20.4036C27.4273 19.681 26.187 19.3683 25.2487 19.6702ZM26.8449 20.9429C27.492 21.2772 27.7832 21.741 27.8695 22.5822C27.9989 23.747 28.1283 23.6715 26.0899 23.6715C24.0516 23.6715 24.181 23.747 24.3104 22.5822C24.3535 22.1616 24.4722 21.7625 24.6124 21.5468C24.882 21.1478 25.6585 20.7056 26.0899 20.7056C26.2409 20.7056 26.5861 20.8135 26.8449 20.9429Z" fill="#0224E9"/>
</svg>
