<svg width="95" height="92" viewBox="0 0 95 92" fill="none" xmlns="http://www.w3.org/2000/svg">
<path d="M0 28H4V90C4 91.1046 3.10457 92 2 92C0.895431 92 0 91.1046 0 90V28Z" fill="#0224E9"/>
<path d="M0 8C0 3.58172 3.58172 0 8 0H87C91.4183 0 95 3.58172 95 8V20C95 24.4183 91.4183 28 87 28H0V8Z" fill="#0224E9"/>
<path d="M12.0481 19V8.09091H15.9366C16.7853 8.09091 17.4885 8.24538 18.046 8.55433C18.6035 8.86328 19.0208 9.28587 19.2978 9.82209C19.5748 10.3548 19.7132 10.9549 19.7132 11.6225C19.7132 12.2937 19.573 12.8974 19.2924 13.4336C19.0154 13.9663 18.5964 14.3888 18.0353 14.7013C17.4778 15.0103 16.7765 15.1648 15.9313 15.1648H13.2573V13.7692H15.7821C16.3184 13.7692 16.7534 13.6768 17.0872 13.4922C17.421 13.304 17.666 13.0483 17.8223 12.7251C17.9785 12.402 18.0566 12.0344 18.0566 11.6225C18.0566 11.2106 17.9785 10.8448 17.8223 10.5252C17.666 10.2056 17.4192 9.95526 17.0819 9.77415C16.748 9.59304 16.3077 9.50249 15.7608 9.50249H13.6941V19H12.0481ZM23.1077 14.142V19H21.515V8.09091H23.0864V12.1499H23.1876C23.3794 11.7095 23.6723 11.3597 24.0665 11.1005C24.4607 10.8413 24.9756 10.7116 25.6112 10.7116C26.1723 10.7116 26.6624 10.8271 27.0814 11.0579C27.504 11.2887 27.8307 11.6332 28.0615 12.0913C28.2959 12.5458 28.4131 13.114 28.4131 13.7958V19H26.8204V13.9876C26.8204 13.3874 26.6659 12.9222 26.357 12.592C26.048 12.2582 25.6183 12.0913 25.0679 12.0913C24.6915 12.0913 24.3541 12.1712 24.0558 12.331C23.7611 12.4908 23.5285 12.7251 23.358 13.0341C23.1911 13.3395 23.1077 13.7088 23.1077 14.142ZM32.9195 19.1811C32.401 19.1811 31.9323 19.0852 31.5132 18.8935C31.0942 18.6982 30.7622 18.4158 30.5171 18.0465C30.2757 17.6772 30.1549 17.2244 30.1549 16.6882C30.1549 16.2266 30.2437 15.8466 30.4213 15.5483C30.5988 15.25 30.8385 15.0138 31.1404 14.8398C31.4422 14.6658 31.7796 14.5344 32.1524 14.4457C32.5253 14.3569 32.9053 14.2894 33.2923 14.2433C33.7824 14.1864 34.1801 14.1403 34.4855 14.1048C34.7909 14.0657 35.0129 14.0036 35.1514 13.9183C35.2899 13.8331 35.3591 13.6946 35.3591 13.5028V13.4656C35.3591 13.0004 35.2277 12.6399 34.9649 12.3842C34.7057 12.1286 34.3186 12.0007 33.8037 12.0007C33.2675 12.0007 32.8449 12.1197 32.536 12.3576C32.2306 12.592 32.0193 12.853 31.9021 13.1406L30.4053 12.7997C30.5828 12.3026 30.8421 11.9013 31.183 11.5959C31.5274 11.2869 31.9234 11.0632 32.3708 10.9247C32.8183 10.7827 33.2888 10.7116 33.7824 10.7116C34.1091 10.7116 34.4553 10.7507 34.8211 10.8288C35.1904 10.9034 35.5349 11.0419 35.8545 11.2443C36.1776 11.4467 36.4422 11.7362 36.6482 12.1126C36.8541 12.4854 36.9571 12.9702 36.9571 13.5668V19H35.4017V17.8814H35.3378C35.2348 18.0874 35.0803 18.2898 34.8744 18.4886C34.6684 18.6875 34.4039 18.8526 34.0807 18.984C33.7575 19.1154 33.3705 19.1811 32.9195 19.1811ZM33.2657 17.9027C33.7061 17.9027 34.0825 17.8157 34.395 17.6417C34.711 17.4677 34.9507 17.2404 35.1141 16.9599C35.281 16.6758 35.3644 16.3722 35.3644 16.049V14.9943C35.3076 15.0511 35.1975 15.1044 35.0342 15.1541C34.8744 15.2003 34.6915 15.2411 34.4855 15.2766C34.2796 15.3086 34.0789 15.3388 33.8836 15.3672C33.6883 15.392 33.5249 15.4134 33.3936 15.4311C33.0846 15.4702 32.8023 15.5359 32.5466 15.6282C32.2945 15.7205 32.0921 15.8537 31.9394 16.0277C31.7902 16.1982 31.7156 16.4254 31.7156 16.7095C31.7156 17.1037 31.8612 17.402 32.1524 17.6044C32.4436 17.8033 32.8147 17.9027 33.2657 17.9027ZM45.2095 12.8157L43.766 13.0714C43.7056 12.8867 43.6097 12.7109 43.4783 12.544C43.3505 12.3771 43.1765 12.2404 42.9563 12.1339C42.7362 12.0273 42.4609 11.9741 42.1307 11.9741C41.6797 11.9741 41.3033 12.0753 41.0014 12.2777C40.6996 12.4766 40.5487 12.734 40.5487 13.0501C40.5487 13.3235 40.6499 13.5437 40.8523 13.7106C41.0547 13.8775 41.3814 14.0142 41.8324 14.1207L43.1321 14.419C43.8849 14.593 44.446 14.8612 44.8153 15.2234C45.1847 15.5856 45.3693 16.0561 45.3693 16.6349C45.3693 17.125 45.2273 17.5618 44.9432 17.9453C44.6626 18.3253 44.2702 18.6236 43.766 18.8402C43.2653 19.0568 42.6847 19.1651 42.0241 19.1651C41.108 19.1651 40.3604 18.9698 39.7816 18.5792C39.2028 18.185 38.8477 17.6257 38.7163 16.9013L40.2557 16.6669C40.3516 17.0682 40.5487 17.3718 40.8469 17.5778C41.1452 17.7802 41.5341 17.8814 42.0135 17.8814C42.5355 17.8814 42.9528 17.7731 43.2653 17.5565C43.5778 17.3363 43.734 17.0682 43.734 16.7521C43.734 16.4964 43.6381 16.2816 43.4464 16.1076C43.2582 15.9336 42.9688 15.8022 42.5781 15.7134L41.1932 15.4098C40.4297 15.2358 39.8651 14.9588 39.4993 14.5788C39.1371 14.1989 38.956 13.7177 38.956 13.1353C38.956 12.6523 39.0909 12.2298 39.3608 11.8675C39.6307 11.5053 40.0036 11.223 40.4794 11.0206C40.9553 10.8146 41.5004 10.7116 42.1147 10.7116C42.9989 10.7116 43.695 10.9034 44.2028 11.2869C44.7106 11.6669 45.0462 12.1765 45.2095 12.8157ZM50.6468 19.1651C49.8406 19.1651 49.1464 18.9929 48.564 18.6484C47.9852 18.3004 47.5377 17.8121 47.2217 17.1836C46.9092 16.5515 46.7529 15.8111 46.7529 14.9624C46.7529 14.1243 46.9092 13.3857 47.2217 12.7464C47.5377 12.1072 47.9781 11.6083 48.5427 11.2496C49.1109 10.891 49.7749 10.7116 50.5349 10.7116C50.9965 10.7116 51.444 10.788 51.8772 10.9407C52.3105 11.0934 52.6993 11.3331 53.0438 11.6598C53.3882 11.9865 53.6599 12.4109 53.8588 12.9329C54.0576 13.4513 54.157 14.0817 54.157 14.8239V15.3885H47.6531V14.1953H52.5963C52.5963 13.7763 52.5111 13.4052 52.3406 13.082C52.1702 12.7553 51.9305 12.4979 51.6215 12.3097C51.3161 12.1214 50.9575 12.0273 50.5455 12.0273C50.0981 12.0273 49.7075 12.1374 49.3737 12.3576C49.0434 12.5742 48.7877 12.8583 48.6066 13.2099C48.4291 13.5579 48.3403 13.9361 48.3403 14.3445V15.2766C48.3403 15.8235 48.4362 16.2887 48.6279 16.6722C48.8232 17.0558 49.0949 17.3487 49.4429 17.5511C49.7909 17.75 50.1975 17.8494 50.6627 17.8494C50.9646 17.8494 51.2398 17.8068 51.4884 17.7216C51.7369 17.6328 51.9518 17.5014 52.1329 17.3274C52.314 17.1534 52.4525 16.9386 52.5484 16.6829L54.0558 16.9545C53.9351 17.3984 53.7185 17.7873 53.406 18.1211C53.097 18.4513 52.7082 18.7088 52.2394 18.8935C51.7742 19.0746 51.2433 19.1651 50.6468 19.1651ZM65.5282 13.5455C65.5282 14.7102 65.3152 15.7116 64.889 16.5497C64.4629 17.3842 63.8787 18.027 63.1365 18.478C62.3979 18.9254 61.5581 19.1491 60.617 19.1491C59.6724 19.1491 58.829 18.9254 58.0868 18.478C57.3482 18.027 56.7658 17.3825 56.3397 16.5444C55.9135 15.7063 55.7005 14.7067 55.7005 13.5455C55.7005 12.3807 55.9135 11.381 56.3397 10.5465C56.7658 9.70845 57.3482 9.0657 58.0868 8.61825C58.829 8.16726 59.6724 7.94176 60.617 7.94176C61.5581 7.94176 62.3979 8.16726 63.1365 8.61825C63.8787 9.0657 64.4629 9.70845 64.889 10.5465C65.3152 11.381 65.5282 12.3807 65.5282 13.5455ZM63.8983 13.5455C63.8983 12.6577 63.7544 11.9102 63.4668 11.3029C63.1827 10.6921 62.7921 10.2305 62.2949 9.91797C61.8013 9.60192 61.242 9.44389 60.617 9.44389C59.9885 9.44389 59.4274 9.60192 58.9338 9.91797C58.4402 10.2305 58.0495 10.6921 57.7619 11.3029C57.4778 11.9102 57.3358 12.6577 57.3358 13.5455C57.3358 14.4332 57.4778 15.1825 57.7619 15.7933C58.0495 16.4006 58.4402 16.8622 58.9338 17.1783C59.4274 17.4908 59.9885 17.647 60.617 17.647C61.242 17.647 61.8013 17.4908 62.2949 17.1783C62.7921 16.8622 63.1827 16.4006 63.4668 15.7933C63.7544 15.1825 63.8983 14.4332 63.8983 13.5455ZM69.0452 14.142V19H67.4525V10.8182H68.9813V12.1499H69.0825C69.2707 11.7166 69.5654 11.3686 69.9667 11.1058C70.3715 10.843 70.8811 10.7116 71.4955 10.7116C72.053 10.7116 72.5413 10.8288 72.9603 11.0632C73.3794 11.294 73.7043 11.6385 73.9351 12.0966C74.1659 12.5547 74.2813 13.1211 74.2813 13.7958V19H72.6887V13.9876C72.6887 13.3945 72.5342 12.9311 72.2252 12.5973C71.9163 12.2599 71.4919 12.0913 70.9521 12.0913C70.5828 12.0913 70.2544 12.1712 69.9667 12.331C69.6826 12.4908 69.4571 12.7251 69.2902 13.0341C69.1269 13.3395 69.0452 13.7088 69.0452 14.142ZM79.9436 19.1651C79.1375 19.1651 78.4433 18.9929 77.8609 18.6484C77.282 18.3004 76.8346 17.8121 76.5186 17.1836C76.2061 16.5515 76.0498 15.8111 76.0498 14.9624C76.0498 14.1243 76.2061 13.3857 76.5186 12.7464C76.8346 12.1072 77.2749 11.6083 77.8396 11.2496C78.4078 10.891 79.0718 10.7116 79.8318 10.7116C80.2934 10.7116 80.7409 10.788 81.1741 10.9407C81.6073 11.0934 81.9962 11.3331 82.3406 11.6598C82.6851 11.9865 82.9568 12.4109 83.1556 12.9329C83.3545 13.4513 83.4539 14.0817 83.4539 14.8239V15.3885H76.95V14.1953H81.8932C81.8932 13.7763 81.808 13.4052 81.6375 13.082C81.4671 12.7553 81.2274 12.4979 80.9184 12.3097C80.613 12.1214 80.2544 12.0273 79.8424 12.0273C79.395 12.0273 79.0044 12.1374 78.6705 12.3576C78.3403 12.5742 78.0846 12.8583 77.9035 13.2099C77.7259 13.5579 77.6372 13.9361 77.6372 14.3445V15.2766C77.6372 15.8235 77.733 16.2887 77.9248 16.6722C78.1201 17.0558 78.3918 17.3487 78.7398 17.5511C79.0878 17.75 79.4944 17.8494 79.9596 17.8494C80.2615 17.8494 80.5367 17.8068 80.7852 17.7216C81.0338 17.6328 81.2487 17.5014 81.4298 17.3274C81.6109 17.1534 81.7494 16.9386 81.8453 16.6829L83.3527 16.9545C83.232 17.3984 83.0154 17.7873 82.7029 18.1211C82.3939 18.4513 82.0051 18.7088 81.5363 18.8935C81.0711 19.0746 80.5402 19.1651 79.9436 19.1651Z" fill="white"/>
</svg>
