<svg width="14" height="14" viewBox="0 0 14 14" fill="none" xmlns="http://www.w3.org/2000/svg">
<path d="M13.7181 6.59588C13.7176 3.08673 10.9868 0.192194 7.50406 0.00912464C4.02129 -0.173944 1.00565 2.41853 0.641719 5.90853C0.277788 9.39853 2.69296 12.5644 6.13764 13.1127V8.50276H4.47321V6.59588H6.13764V5.14253C6.13764 3.48921 7.11655 2.57597 8.6138 2.57597C9.10551 2.58283 9.59607 2.62583 10.0816 2.70461V4.32824H9.25466C8.96923 4.2901 8.68206 4.38464 8.47423 4.58517C8.26641 4.78569 8.16051 5.07044 8.18643 5.35899V6.59588H10.0049L9.714 8.50276H8.18643V13.1127C11.3726 12.6055 13.7187 9.84165 13.7181 6.59588Z" fill="black"/>
</svg>
