<svg width="14" height="14" viewBox="0 0 14 14" fill="none" xmlns="http://www.w3.org/2000/svg">
<path fill-rule="evenodd" clip-rule="evenodd" d="M4.24172 0.727697C4.90426 0.697676 5.1157 0.69043 6.80258 0.69043C8.48945 0.69043 8.70089 0.697676 9.36343 0.727697C10.3733 0.773764 11.2597 1.02118 11.9714 1.73289C12.6834 2.44485 12.9305 3.33151 12.9766 4.34084C13.0066 5.00338 13.0138 5.21482 13.0138 6.9017C13.0138 8.58857 13.0066 8.80002 12.9766 9.46255C12.9305 10.4724 12.6831 11.3588 11.9714 12.0705C11.2594 12.7825 10.3725 13.0296 9.36343 13.0757C8.70089 13.1057 8.48945 13.113 6.80258 13.113C5.1157 13.113 4.90426 13.1057 4.24172 13.0757C3.23187 13.0296 2.34547 12.7822 1.63377 12.0705C0.9218 11.3585 0.674643 10.4719 0.628576 9.46255C0.598555 8.80002 0.591309 8.58857 0.591309 6.9017C0.591309 5.21482 0.598555 5.00338 0.628576 4.34084C0.674643 3.33099 0.922059 2.4446 1.63377 1.73289C2.34573 1.02092 3.23239 0.773764 4.24172 0.727697ZM9.31274 1.84561C8.65771 1.81559 8.46128 1.80938 6.80287 1.80938C5.14446 1.80938 4.94803 1.81585 4.293 1.84561C3.58621 1.87796 2.93015 2.01953 2.42548 2.52419C1.92082 3.02886 1.77925 3.68492 1.7469 4.39171C1.71688 5.04674 1.71067 5.24317 1.71067 6.90158C1.71067 8.55999 1.71714 8.75642 1.7469 9.41145C1.77925 10.1182 1.92082 10.7743 2.42548 11.279C2.93015 11.7836 3.58621 11.9252 4.293 11.9576C4.94777 11.9876 5.14421 11.9938 6.80287 11.9938C8.46154 11.9938 8.65797 11.9873 9.31274 11.9576C10.0195 11.9252 10.6756 11.7836 11.1803 11.279C11.6849 10.7743 11.8265 10.1182 11.8588 9.41145C11.8889 8.75642 11.8951 8.55999 11.8951 6.90158C11.8951 5.24317 11.8886 5.04674 11.8588 4.39171C11.8265 3.68492 11.6849 3.02886 11.1803 2.52419C10.6756 2.01953 10.0195 1.87796 9.31274 1.84561Z" fill="black"/>
<path fill-rule="evenodd" clip-rule="evenodd" d="M3.97949 7.18376C3.97949 5.46865 5.36977 4.07812 7.08513 4.07812C8.80048 4.07812 10.1908 5.4684 10.1908 7.18376C10.1908 8.89912 8.80048 10.2894 7.08513 10.2894C5.36977 10.2894 3.97949 8.89886 3.97949 7.18376ZM5.06938 7.18408C5.06938 8.29741 5.97204 9.20007 7.08537 9.20007C8.1987 9.20007 9.10136 8.29741 9.10136 7.18408C9.10136 6.07075 8.1987 5.16809 7.08537 5.16809C5.97204 5.16809 5.06938 6.07075 5.06938 7.18408Z" fill="black"/>
<circle cx="9.90851" cy="3.79621" r="0.846991" fill="black"/>
</svg>
