<svg width="13" height="14" viewBox="0 0 13 14" fill="none" xmlns="http://www.w3.org/2000/svg">
<path fill-rule="evenodd" clip-rule="evenodd" d="M1.09524 0.69043H12.4826C12.7672 0.69043 13.0002 0.923352 13.0002 1.20804V12.5954C13.0002 12.88 12.7672 13.113 12.4826 13.113H1.09524C0.810559 13.113 0.577637 12.88 0.577637 12.5954V1.20804C0.577637 0.923352 0.810559 0.69043 1.09524 0.69043ZM2.41503 11.2753H4.25253V5.34871H2.41503V11.2753ZM3.34672 4.54655C2.75148 4.54655 2.28563 4.08071 2.28563 3.48546C2.28563 2.89022 2.75148 2.42437 3.34672 2.42437C3.94197 2.42437 4.40781 2.89022 4.40781 3.48546C4.40781 4.05483 3.94197 4.54655 3.34672 4.54655ZM9.32514 11.2752H11.1368V8.01431C11.1368 6.40973 10.8003 5.19336 8.93693 5.19336C8.057 5.19336 7.43587 5.68508 7.20295 6.15093H7.17707V5.34864H5.41721V11.2752H7.25471V8.35075C7.25471 7.57435 7.40999 6.82382 8.36756 6.82382C9.32514 6.82382 9.32514 7.70375 9.32514 8.40251V11.2752Z" fill="black"/>
</svg>
