<svg width="12" height="11" viewBox="0 0 12 11" fill="none" xmlns="http://www.w3.org/2000/svg">
<path d="M11.7324 1.27094C11.2924 1.48439 10.828 1.61779 10.3392 1.69784C10.828 1.37767 11.2191 0.870734 11.3902 0.257077C10.9258 0.550565 10.4125 0.764011 9.85032 0.897414C9.41036 0.390481 8.77485 0.0703125 8.09046 0.0703125C6.77057 0.0703125 5.6951 1.24426 5.6951 2.68502C5.6951 2.89847 5.71954 3.08523 5.76843 3.272C3.78859 3.16527 2.00428 2.12473 0.806602 0.523884C0.611062 0.924095 0.48885 1.35099 0.48885 1.83124C0.48885 2.73838 0.904372 3.5388 1.56432 4.01906C1.17324 3.99238 0.806602 3.88565 0.464407 3.69889V3.72557C0.464407 5.00624 1.29545 6.07347 2.39536 6.3136C2.19982 6.36696 1.97984 6.39364 1.75986 6.39364C1.6132 6.39364 1.44211 6.36696 1.29545 6.34028C1.6132 7.38083 2.49313 8.15457 3.54416 8.15457C2.71312 8.84826 1.68653 9.27516 0.562177 9.27516C0.366637 9.27516 0.171097 9.27515 0 9.24847C1.07547 9.99553 2.32204 10.4224 3.69082 10.4224C8.11491 10.4224 10.5347 6.42032 10.5347 2.95183C10.5347 2.84511 10.5347 2.7117 10.5347 2.60498C10.9991 2.25813 11.4146 1.80456 11.7324 1.27094Z" fill="black"/>
</svg>
